HIERARCHY
ROOT Hips
{
  OFFSET 90.7885 88.945 -76.2838
  CHANNELS 6 Xposition Yposition Zposition Zrotation Xrotation Yrotation
  JOINT LeftUpLeg
  {
    OFFSET 8.64259 1.95398 -2.38835
    CHANNELS 3 Zrotation Xrotation Yrotation
    JOINT LeftLeg
    {
      OFFSET 43.7702 0 0
      CHANNELS 3 Zrotation Xrotation Yrotation
      JOINT LeftFoot
      {
        OFFSET 40.6238 0 0
        CHANNELS 3 Zrotation Xrotation Yrotation
        JOINT LeftToeBase
        {
          OFFSET 12.7242 0 0
          CHANNELS 3 Zrotation Xrotation Yrotation
          End Site
          {
            OFFSET 0 0 0
          }
        }
      }
    }
  }
  JOINT RightUpLeg
  {
    OFFSET -8.2249 1.95398 -2.59336
    CHANNELS 3 Zrotation Xrotation Yrotation
    JOINT RightLeg
    {
      OFFSET 43.5653 0 0
      CHANNELS 3 Zrotation Xrotation Yrotation
      JOINT RightFoot
      {
        OFFSET 40.6238 0 0
        CHANNELS 3 Zrotation Xrotation Yrotation
        JOINT RightToeBase
        {
          OFFSET 12.7242 0 0
          CHANNELS 3 Zrotation Xrotation Yrotation
          End Site
          {
            OFFSET 0 0 0
          }
        }
      }
    }
  }
  JOINT Spine
  {
    OFFSET 0.165834 0.87714 6.61349
    CHANNELS 3 Zrotation Xrotation Yrotation
    JOINT Spine1
    {
      OFFSET 7.38963 1.71661e-005 0
      CHANNELS 3 Zrotation Xrotation Yrotation
      JOINT Spine2
      {
        OFFSET 11.9445 1.14441e-005 0
        CHANNELS 3 Zrotation Xrotation Yrotation
        JOINT Spine3
        {
          OFFSET 14.7254 4.19617e-005 0
          CHANNELS 3 Zrotation Xrotation Yrotation
          JOINT Spine4
          {
            OFFSET 10.9679 0 0
            CHANNELS 3 Zrotation Xrotation Yrotation
            JOINT RightShoulder
            {
              OFFSET 2.46616 -1.6653 3.69651
              CHANNELS 3 Zrotation Xrotation Yrotation
              JOINT RightArm
              {
                OFFSET 13.0012 0 0
                CHANNELS 3 Zrotation Xrotation Yrotation
                JOINT RightForeArm
                {
                  OFFSET 28.7848 1.52588e-005 0
                  CHANNELS 3 Zrotation Xrotation Yrotation
                  JOINT RightHand
                  {
                    OFFSET 26.5688 1.52588e-005 0
                    CHANNELS 3 Zrotation Xrotation Yrotation
                    End Site
                    {
                      OFFSET 0 0 0
                    }
                  }
                }
              }
            }
            JOINT LeftShoulder
            {
              OFFSET 2.38034 -1.29275 -3.7523
              CHANNELS 3 Zrotation Xrotation Yrotation
              JOINT LeftArm
              {
                OFFSET 16.3182 6.10352e-005 0
                CHANNELS 3 Zrotation Xrotation Yrotation
                JOINT LeftForeArm
                {
                  OFFSET 27.0901 0 0
                  CHANNELS 3 Zrotation Xrotation Yrotation
                  JOINT LeftHand
                  {
                    OFFSET 24.5451 1.52588e-005 0
                    CHANNELS 3 Zrotation Xrotation Yrotation
                    End Site
                    {
                      OFFSET 0 0 0
                    }
                  }
                }
              }
            }
            JOINT Neck
            {
              OFFSET 5.0226 -0.0266342 0
              CHANNELS 3 Zrotation Xrotation Yrotation
              JOINT Head
              {
                OFFSET 6.69363 2.86102e-005 0
                CHANNELS 3 Zrotation Xrotation Yrotation
                End Site
                {
                  OFFSET 0 0 0
                }
              }
            }
          }
        }
      }
    }
  }
}
MOTION
Frames:	18
Frame Time:	0.0416667
-338.318 91.3387 310.987 105.592 67.7075 76.262 -176.405 9.72939 88.4277 -34.7324 28.1808 -1.23625 77.9556 8.12835 -0.63866 15.5676 1.07612 0.798441 160.51 -23.0613 86.9773 -29.2627 0.525412 10.8299 52.3077 2.57422 2.07304 22.7264 -2.65778 6.74458 -2.36803 6.93974 -89.6683 13.0286 -4.54167 1.21931 1.36484 -4.48361 1.41836 -21.2343 -4.6977 -0.205023 -1.22162 -4.6977 -0.205029 93.5113 -32.3835 -99.0929 45.074 -14.6935 4.78189 -168.029 -2.11221 179.995 20.6981 -1.12771 -30.3838 -89.3813 -61.1346 81.7089 -10.3921 17.5175 3.99266 5.65841 13.0255 -13.5813 8.939 -0.309831 -6.58406 -1.4855 -0.809552 -2.68156 -6.75932 -0.496218 0.778893 
-337.536 93.1901 309.011 102.484 57.4755 78.3877 -177.571 1.47428 86.467 -23.1924 16.3631 -1.76031 75.4388 6.52252 -1.50066 16.9585 1.01059 0.651162 162.444 -6.11167 86.4474 -47.1437 -16.7899 3.24763 64.887 -2.86211 -2.60467 24.9167 -2.15708 5.47069 -1.65134 7.56655 -89.6563 11.7581 -3.12274 1.01338 0.0904558 -3.07512 1.14994 -22.4751 -3.2828 0.0270238 -2.46243 -3.28281 0.0270171 91.6006 -31.055 -103.216 43.5578 -12.5832 1.72624 -170.658 -1.12161 179.995 4.01234 -0.336555 -38.3672 -87.7937 -58.9481 83.4948 -8.97463 19.7734 -11.523 1.07996 -6.77701 -10.2482 3.61593 0.229597 1.30491 3.67766 0.599116 -1.2992 -6.13294 0.823096 0.051647 
-336.246 93.8996 308.197 98.3366 50.6525 83.6221 -178.203 -0.946451 86.3768 -18.3821 7.36129 -0.922195 74.9262 5.94373 -4.13704 16.8977 -0.567974 2.56587 171.678 10.0632 83.6328 -48.6735 -8.44416 -1.57215 72.5519 -6.25977 1.60484 17.6298 1.03496 0.623719 -1.18185 7.90808 -89.7915 11.0655 -2.25586 0.632022 -0.60374 -2.22585 0.730731 -23.1545 -2.34145 -0.0755409 -3.14186 -2.34145 -0.0755355 89.3215 -31.2155 -107.621 41.7459 -11.2335 0.733511 -172.186 9.45176 178.846 -5.48528 3.33319 -62.4653 -87.7959 -53.7009 82.663 -10.6748 18.2969 -23.6255 1.08571 -10.1449 -9.80475 7.62088 0.257166 -3.38568 6.08618 1.46751 -4.64895 -4.74414 2.28332 2.20364 
-333.087 93.6751 305.981 97.0937 45.7529 86.6389 -177.73 -3.48298 88.0817 -17.9389 3.26562 -0.523849 77.6368 6.219 -3.38107 17.1903 -1.23719 3.30107 176.717 17.0518 90.2856 -34.311 -4.59153 -2.97594 69.0522 -5.01176 3.61976 19.9238 2.55547 -3.16182 -0.700555 8.02226 -89.9956 10.8307 -1.39291 0.138883 -0.839476 -1.38543 0.200064 -23.3805 -1.37023 -0.286241 -3.36781 -1.37023 -0.286241 89.0768 -31.8156 -107.862 41.3887 -10.7858 2.01154 -9.18659 -48.1681 -21.9405 -36.5117 6.21798 -31.7044 -88.8394 -52.0243 80.8542 -10.9176 12.8147 -30.9478 7.26624 5.19571 -16.4088 1.39023 -0.158774 -6.06504 5.86819 1.43166 -7.46209 -3.09073 2.78637 3.54211 
-328.623 92.5923 302.504 95.4846 43.1423 90.0132 -176.737 -5.44554 90.2151 -19.959 1.20386 -0.331807 81.9264 6.43439 -4.20124 19.3409 -2.47371 4.59872 177.096 16.7266 94.5924 -8.73868 -11.3172 -1.07683 60.271 -1.99787 -3.74134 25.8246 -2.12305 5.33887 -0.330834 8.04693 -90.2384 10.7786 -0.768719 -0.402861 -0.892148 -0.785715 -0.36864 -23.4281 -0.612089 -0.615266 -3.41541 -0.612113 -0.615273 89.691 -32.2863 -106.505 41.955 -10.1899 3.34733 0.717335 -20.2343 -19.8409 -32.0222 1.25066 -14.0398 -88.9244 -49.7361 80.2856 -11.487 12.4502 -38.1854 9.62348 10.2813 -18.8595 1.51233 -0.171928 -6.77015 7.03785 0.76806 -9.65804 -3.59541 2.63529 3.73314 
-322.971 90.876 297.583 94.4696 42.5893 91.8473 -174.948 -10.2078 92.4549 -19.3624 0.746677 -1.04023 86.5818 7.96917 -5.14426 19.6235 -1.31004 3.11803 177.222 22.4388 97.635 -7.17811 -9.44278 -0.176195 65.6844 -2.85824 -0.913392 24.9954 -1.70382 4.51132 -0.273474 7.99062 -90.3961 10.8904 -0.727529 -0.718783 -0.780557 -0.758464 -0.686072 -23.315 -0.477876 -0.904195 -3.30235 -0.477888 -0.904205 88.8647 -33.551 -107.601 41.2913 -8.52756 4.88994 1.44345 -21.2386 -18.5522 -25.8277 0.0855397 -10.7254 -89.1506 -50.0482 80.0117 -9.93421 12.3579 -41.4734 11.7065 14.5839 -21.3854 0.887495 -0.129037 -5.83238 6.87349 1.02464 -10.2275 -3.0096 3.01289 3.40472 
-316.446 89.1791 291.701 95.2519 43.0105 92.1243 -172.844 -17.2767 94.7727 -17.5581 1.34752 -1.42911 88.4198 9.15618 -5.63452 22.7686 -1.99286 3.69701 178.187 23.9838 99.3822 -12.9162 -9.64359 -0.185927 61.4507 -0.986751 -2.03938 26.1666 -1.38759 3.66509 -0.296157 7.97876 -90.6115 10.9094 -0.872422 -1.13497 -0.761685 -0.921521 -1.09549 -23.2938 -0.491025 -1.34467 -3.28111 -0.491016 -1.34467 88.7416 -33.9905 -107.673 41.255 -7.19005 6.23762 2.27464 -21.8551 -16.1218 -23.2589 -0.589539 -7.73658 -90.2251 -50.9826 78.6033 -9.11389 13.04 -41.1165 11.5207 17.4231 -20.1066 -0.746343 -0.126482 -6.82183 5.67657 1.22198 -8.92499 -2.01407 2.87839 2.77585 
-309.565 89.0838 285.144 96.5632 45.9379 92.2632 -169.506 -21.5968 99.073 -18.9437 7.28873 -0.752617 81.7992 8.84371 -1.96752 32.7304 0.804369 -2.15681 177.734 25.4166 100.02 -26.0156 -10.4313 -0.023112 58.301 0.836622 -1.02185 21.8009 -0.579086 2.62879 -0.562374 8.02544 -90.9264 10.8109 -1.54744 -1.69822 -0.860175 -1.62065 -1.6285 -23.3899 -0.965644 -2.08465 -3.37723 -0.965634 -2.08465 89.5277 -33.6238 -106.333 41.2306 -6.96714 6.15199 3.84035 -22.9234 -12.2942 -21.9783 -0.383856 -9.42697 -89.5776 -50.1802 79.3966 -11.1918 15.8677 -37.5921 9.77068 20.1955 -16.6229 -1.70304 -0.0991733 -5.69672 8.58598 0.949477 -7.05839 -5.10256 2.35576 3.01592 
-303.746 89.686 278.9 99.1144 47.379 89.0687 -169.232 -15.4634 99.4313 -37.4245 15.8931 1.46705 66.2801 3.49282 0.757713 33.2728 4.39244 -7.83408 176.3 22.2405 98.5275 -34.7866 -10.7198 0.19965 64.9376 -2.29054 -1.78971 21.8579 -0.959582 3.37526 -0.635649 8.09191 -90.8867 10.6759 -1.67445 -1.61008 -0.994876 -1.74367 -1.53483 -23.5265 -1.11326 -2.03876 -3.51384 -1.11324 -2.03877 89.3884 -32.8034 -106.892 41.1815 -6.31662 6.05821 4.94051 -22.6083 -10.516 -21.3333 -0.5521 -8.36062 -89.6468 -50.5112 79.3624 -13.1194 18.586 -32.0926 4.67325 17.1474 -8.78889 -1.8402 -0.102486 -6.94755 7.7819 1.01762 -5.21488 -4.42196 2.02455 2.36043 
-298.315 90.8122 274.108 99.9101 47.5355 89.0321 -168.238 -0.884068 102.007 -58.2925 18.5856 2.90401 56.8062 -0.330674 -0.618235 16.6351 8.61818 -8.28886 176.095 16.0898 99.3382 -34.2229 -10.9359 0.304295 69.562 -4.35751 -2.58663 22.3404 -1.01084 3.41082 -0.301293 8.15788 -90.8937 10.5477 -1.01069 -1.68642 -1.12384 -1.08392 -1.64032 -23.6512 -0.457236 -1.91212 -3.63853 -0.457221 -1.91213 88.921 -32.5787 -107.865 40.2823 -7.34694 4.11893 4.40263 -22.1059 -11.8637 -23.0637 -0.457395 -8.45044 -88.7914 -50.912 80.7129 -15.7324 18.1093 -25.1508 3.47781 13.3117 -5.63173 0.14615 -0.141926 -6.84365 7.13426 -0.234871 -4.80747 -4.62245 0.697035 1.65601 
-293.777 92.1711 269.216 99.2277 48.8486 87.4039 -170.67 13.3404 97.6301 -66.2386 12.4884 2.82189 65.556 3.34623 0.67665 13.3138 2.71867 -0.647034 175.112 10.2289 97.0671 -31.2069 -10.9989 -0.195327 72.9153 -5.50925 -1.95009 22.1954 -0.726204 2.85379 0.00867825 8.11968 -90.6313 10.6322 -0.27319 -1.22917 -1.0393 -0.327012 -1.21596 -23.5697 0.108834 -1.25445 -3.55709 0.108822 -1.25445 88.9434 -31.7648 -108.134 38.4954 -8.43689 1.64338 2.74065 -22.0348 -15.4134 -31.9018 -0.729222 -6.61344 -88.684 -51.8484 81.0475 -17.6651 16.2628 -16.9733 5.06595 10.9008 -8.17299 0.380836 -0.120328 -5.65211 4.39263 -1.75224 -4.12378 -3.26811 -0.995454 0.460698 
-289.129 93.0044 263.898 98.4606 48.0234 85.0846 -172.81 22.5161 92.6098 -57.783 5.92116 0.497019 68.1539 4.56397 0.189818 14.7167 0.957926 1.0563 174.166 3.92771 94.5738 -28.6591 -13.0375 -1.42099 76.3501 -6.76385 -1.53271 21.8552 -0.224692 1.89775 0.443762 8.17709 -90.2233 10.5231 0.781403 -0.513608 -1.14776 0.758027 -0.547503 -23.6846 0.899647 -0.255007 -3.67193 0.899632 -0.255012 89.4451 -30.6736 -107.592 35.5747 -10.0878 -2.91808 1.46633 -22.6888 -18.27 -24.3188 -0.384947 -9.32299 -88.0789 -51.1853 81.8206 -19.6077 15.4002 -8.59679 6.16787 6.46955 -12.903 0.397952 -0.126415 -5.82267 2.67289 -2.92032 -3.14168 -2.44747 -2.36347 -1.04992 
-284.345 92.853 257.965 98.446 46.7684 83.6475 -175.453 25.4144 89.9953 -37.534 0.237335 -1.66511 65.7165 3.6939 -3.00238 17.1026 -2.48718 4.81093 172.114 -2.45843 90.8015 -25.3675 -16.742 -1.3642 79.5873 -8.7619 -2.11307 22.072 -0.128122 1.66442 0.756621 8.28912 -90.0776 10.2981 1.47202 -0.281108 -1.37209 1.45822 -0.345637 -23.9139 1.48844 0.174394 -3.90127 1.48843 0.17439 88.2575 -30.1948 -110.11 29.5911 -9.48124 -6.84993 0.211072 -24.7106 -20.5187 -27.6809 -0.983222 -6.2315 -88.1345 -53.6838 82.1745 -18.9791 14.0352 -0.0874178 6.68057 2.83953 -17.7 -1.2037 -0.115151 -6.78297 1.77805 -3.17854 0.164796 -1.58979 -3.16938 -3.19669 
-278.903 91.493 251.502 98.8174 45.8814 83.5157 -178.656 23.2502 89.6467 -12.0827 -1.73828 -1.45379 62.0864 2.73718 -2.62637 17.907 -1.22931 3.21158 170.447 -10.0652 88.679 -22.0044 -18.3172 -1.27802 83.157 -10.5982 -0.76782 23.6605 -0.0427374 1.18794 0.983121 8.33733 -90.1258 10.2037 1.90153 -0.411365 -1.46599 1.88157 -0.494687 -24.0123 1.93723 0.179363 -3.99965 1.9372 0.179359 88.0964 -29.5588 -110.703 24.3743 -9.08259 -11.8315 -0.340341 -27.871 -20.0333 -26.4406 -1.24809 -5.79468 -87.8892 -54.9729 82.7417 -20.1921 10.5883 6.45111 8.57382 5.68056 -17.9629 -3.28429 -0.0762776 -5.34216 1.1231 -3.38416 1.72066 -1.52423 -3.60899 -3.39934 
-272.697 89.7131 244.264 99.2894 43.8266 83.2977 -179.724 23.965 89.8708 -9.3841 -0.948761 -1.70059 60.4623 1.74105 -2.73099 19.0157 -2.62251 4.77308 168.013 -17.0236 85.471 -21.0309 -19.9307 -1.54153 85.4501 -11.6632 1.62607 26.3242 -0.538914 1.67601 1.29997 8.36362 -90.07 10.1517 2.55844 -0.35421 -1.51684 2.54038 -0.46654 -24.0717 2.54655 0.431595 -4.0591 2.54653 0.431595 88.0515 -30.0538 -110.574 22.1771 -7.47046 -14.5081 -1.93998 -27.172 -21.0754 -25.3794 -0.719185 -8.45615 -87.0311 -55.2895 84.0071 -20.7621 8.73774 8.54822 8.38971 9.48768 -12.0768 -4.80879 -0.0513712 -4.58288 2.05521 -3.83884 0.655794 -2.50763 -3.87728 -2.33434 
-265.61 89.5665 236.12 98.756 40.8855 82.3172 -178.052 24.3952 88.2294 -19.008 2.9012 -2.26631 55.7058 -0.766355 -2.11506 15.8234 0.906729 0.997006 166.027 -19.8247 81.243 -24.6528 -23.6574 -3.85743 75.7159 -7.88728 -0.846246 40.2978 -3.41609 7.78532 1.54921 8.25437 -89.8114 10.3681 3.17264 0.0969115 -1.29899 3.17383 -0.0429714 -23.8629 2.99673 1.04681 -3.85022 2.99671 1.04681 88.4957 -29.7966 -109.813 25.1242 -6.65601 -14.3223 -3.81858 -29.0369 -23.5743 -26.9663 -0.906066 -7.9736 -86.4539 -55.4844 84.8556 -21.5687 9.77134 8.40533 5.20446 1.83061 -3.14925 -3.83657 -0.104514 -3.3346 3.27158 -3.89022 -0.11311 -5.31014 -3.72532 -3.06447 
-258.951 90.3784 228.44 99.1841 39.895 80.1793 -175.909 23.0202 85.8237 -30.1881 5.68167 -3.79916 64.2653 2.33583 0.422913 11.2653 2.02021 0.425866 168.386 -12.6784 79.9289 -44.5526 -23.4791 -6.27055 60.2448 -0.491531 -1.91114 37.7309 -4.74391 11.6209 1.23824 8.11322 -89.5414 10.6411 2.67713 0.668639 -1.0272 2.70396 0.550076 -23.579 2.35237 1.44268 -3.56634 2.35236 1.44267 88.3754 -29.548 -110.158 28.7959 -9.23536 -12.9394 -3.38239 -28.3037 -23.7725 -24.6688 -0.508482 -10.1569 -87.0039 -54.9169 83.9919 -23.2595 8.86145 9.00324 5.45127 -1.18584 -3.24484 -4.11685 -0.0933193 -4.18598 1.2435 -2.76023 -0.611915 -5.90761 -2.54515 -2.70429 
-253.524 91.5336 222.232 100.348 38.5963 77.5405 -176.182 16.8317 83.8148 -31.846 4.06492 -4.64005 70.0476 4.48249 0.634827 13.339 1.86795 0.256756 172.87 -0.970262 79.1944 -62.8722 -21.5815 -6.33307 54.678 1.69637 0.624996 24.4386 -2.42539 6.02396 0.943296 8.18929 -89.2568 10.4815 2.21999 1.27954 -1.1881 2.27414 1.18056 -23.7283 1.73286 1.8876 -3.71566 1.73285 1.8876 89.097 -30.7037 -108.258 31.7042 -11.5474 -11.4636 -0.622072 -26.3578 -20.6822 -26.5546 -0.631957 -8.58449 -87.3066 -53.1048 83.2771 -21.8709 10.0081 2.78147 6.16787 5.69164 -6.03588 -3.49903 -0.0880881 -4.60742 -0.30566 -1.62425 -2.55714 -6.68219 -1.21092 -0.921142 
